# xmcd
# 
# Track frame offsets:
#     151
#     20634
#     38948
#     53896
#     70870
#     95297
#     115594
#     133553
#     143136
#     161147
#     187212
#     217458
#     243256
#     263391
# 
# Disc length: 3736
# 
# Revision: 3
# Processed by: cddbd v1.5.2PL0 Copyright (c) Steve Scherf et al.
# Submitted via: fre:ac v1.0.17
# 
DISCID=cd0e960e
DTITLE=Various Artist - Bowers and Wilkins Present
DYEAR=2004
DGENRE=Acoustic
TTITLE0=Colour To The Moon
TTITLE1=Pearl Driver
TTITLE2=Would You Break My Heart
TTITLE3=La Gamba in Tenor
TTITLE4=The Puppet Opera
TTITLE5=Some Dreams
TTITLE6=If You Want My Love
TTITLE7=Martin Minoit Son Portiau Au Marche
TTITLE8=Set'em Up Joe
TTITLE9=Long Affter You're Gone
TTITLE10=Calder's Circus
TTITLE11=Flesh and Blood
TTITLE12=Old Fashionned Satuday Night
TTITLE13=Mr. Bones
EXTD=
EXTT0=
EXTT1=
EXTT2=
EXTT3=
EXTT4=
EXTT5=
EXTT6=
EXTT7=
EXTT8=
EXTT9=
EXTT10=
EXTT11=
EXTT12=
EXTT13=
PLAYORDER=
